<svg t="1482220003101" class="icon" viewBox="0 0 4366 1024" version="1.1" xmlns="http://www.w3.org/2000/svg" xmlns:xlink="http://www.w3.org/1999/xlink" width="852.734375" height="200"><path d="M18.49 102.4l235.14 811.615h83.437l197.215-720.593 197.215 713.007h83.437l235.14-811.615h-75.852l-197.215 720.593-204.8-713.007h-75.852l-197.215 720.593-204.8-720.593h-75.852zM1133.513 102.4v811.615h68.267v-348.918h257.897c182.045 0 273.067-75.852 273.067-235.14s-91.022-235.14-273.067-235.14h-326.163zM1201.78 163.082h257.897c68.267 0 121.363 15.17 159.289 45.511 30.34 30.34 45.511 68.267 45.511 128.948 0 60.682-15.17 98.607-45.511 128.948-37.926 30.34-83.437 45.511-159.289 45.511h-257.897v-348.918zM2203.024 79.645c-121.363 0-219.97 45.511-288.237 128.948-60.682 75.852-98.607 174.46-98.607 295.822s30.34 219.97 91.022 295.822c68.267 83.437 159.289 128.948 288.237 128.948 83.437 0 159.289-22.755 219.97-75.852 68.267-53.097 113.778-128.948 128.948-219.97h-68.267c-15.17 75.852-53.097 136.533-106.193 174.46s-106.193 53.097-182.045 53.097c-98.607 0-174.46-30.34-227.555-98.607-53.097-60.682-75.852-151.703-75.852-250.311s22.755-189.63 75.852-257.897c60.682-68.267 136.533-106.193 235.14-106.193 68.267 0 121.363 15.17 174.46 53.097 53.097 37.926 83.437 83.437 91.022 144.118h68.267c-7.585-83.437-45.511-144.118-113.778-189.63-53.097-53.097-128.948-75.852-212.385-75.852zM3022.224 79.645c-121.363 0-212.385 37.926-288.237 121.363-68.267 75.852-98.607 174.46-98.607 295.822s30.34 219.97 98.607 295.822c68.267 83.437 166.874 121.363 288.237 121.363s212.385-37.926 288.237-121.363c68.267-75.852 98.607-174.46 98.607-303.407s-30.34-219.97-98.607-295.822c-75.852-68.267-174.46-113.778-288.237-113.778zM3022.224 147.911c98.607 0 174.46 30.34 235.14 98.607 53.097 60.682 83.437 151.703 83.437 257.897s-30.34 189.63-83.437 257.897c-60.682 68.267-136.533 98.607-235.14 98.607s-174.46-30.34-235.14-106.193c-53.097-68.267-83.437-151.703-83.437-257.897s30.34-189.63 83.437-257.897c53.097-60.682 136.533-91.022 235.14-91.022zM3530.432 102.4v811.615h68.267v-697.837h7.585l303.407 697.837h68.267l303.407-697.837v697.837h68.267v-811.615h-91.022l-318.578 728.178-318.578-728.178h-91.022z" fill="#0088cc"></path></svg>